<svg width="228" height="219" viewBox="0 0 228 219" fill="none" xmlns="http://www.w3.org/2000/svg">
<g filter="url(#filter0_f_2_405)">
<path d="M97.8502 130.936V113.626C97.8502 104.698 105.09 97.4579 114.018 97.4579C122.946 97.4579 130.186 104.698 130.186 113.626V130.932" stroke="url(#paint0_linear_2_405)" stroke-width="18.3" stroke-miterlimit="10"/>
</g>
<path d="M97.8502 130.936V113.626C97.8502 104.698 105.09 97.4579 114.018 97.4579C122.946 97.4579 130.186 104.698 130.186 113.626V130.932" stroke="url(#paint1_linear_2_405)" stroke-width="10" stroke-miterlimit="10"/>
<g filter="url(#filter1_b_2_405)">
<path d="M135.245 120.416H92.7909C89.5927 120.416 87 123.009 87 126.207V150.011C87 153.21 89.5927 155.802 92.7909 155.802H135.245C138.443 155.802 141.036 153.21 141.036 150.011V126.207C141.036 123.009 138.443 120.416 135.245 120.416Z" fill="url(#paint2_linear_2_405)"/>
<path d="M92.7909 121.416H135.245C137.891 121.416 140.036 123.561 140.036 126.207V150.011C140.036 152.657 137.891 154.802 135.245 154.802H92.7909C90.145 154.802 88 152.657 88 150.011V126.207C88 123.561 90.145 121.416 92.7909 121.416Z" stroke="url(#paint3_linear_2_405)" stroke-width="2"/>
</g>
<defs>
<filter id="filter0_f_2_405" x="0.700169" y="0.307922" width="226.636" height="218.628" filterUnits="userSpaceOnUse" color-interpolation-filters="sRGB">
<feFlood flood-opacity="0" result="BackgroundImageFix"/>
<feBlend mode="normal" in="SourceGraphic" in2="BackgroundImageFix" result="shape"/>
<feGaussianBlur stdDeviation="44" result="effect1_foregroundBlur_2_405"/>
</filter>
<filter id="filter1_b_2_405" x="69" y="102.416" width="90.036" height="71.3864" filterUnits="userSpaceOnUse" color-interpolation-filters="sRGB">
<feFlood flood-opacity="0" result="BackgroundImageFix"/>
<feGaussianBlur in="BackgroundImageFix" stdDeviation="9"/>
<feComposite in2="SourceAlpha" operator="in" result="effect1_backgroundBlur_2_405"/>
<feBlend mode="normal" in="SourceGraphic" in2="effect1_backgroundBlur_2_405" result="shape"/>
</filter>
<linearGradient id="paint0_linear_2_405" x1="93.4795" y1="112.009" x2="134.556" y2="112.009" gradientUnits="userSpaceOnUse">
<stop stop-color="#91F4FF"/>
<stop offset="0.5" stop-color="#D67EE2"/>
<stop offset="0.99" stop-color="#9820FF"/>
</linearGradient>
<linearGradient id="paint1_linear_2_405" x1="93.4795" y1="112.009" x2="134.556" y2="112.009" gradientUnits="userSpaceOnUse">
<stop stop-color="#91F4FF"/>
<stop offset="0.5" stop-color="#D67EE2"/>
<stop offset="0.99" stop-color="#9820FF"/>
</linearGradient>
<linearGradient id="paint2_linear_2_405" x1="90.0506" y1="153.805" x2="118.825" y2="109.866" gradientUnits="userSpaceOnUse">
<stop stop-color="white" stop-opacity="0.2"/>
<stop offset="1" stop-color="white" stop-opacity="0.49"/>
</linearGradient>
<linearGradient id="paint3_linear_2_405" x1="90.8143" y1="123.199" x2="117.223" y2="166.317" gradientUnits="userSpaceOnUse">
<stop stop-color="white"/>
<stop offset="1" stop-color="white" stop-opacity="0"/>
</linearGradient>
</defs>
</svg>
